HIERARCHY
ROOT Hips
{
	OFFSET 0.00000 0.00000 0.00000
	CHANNELS 6 Xposition Yposition Zposition Zrotation Yrotation Xrotation 
	JOINT LHipJoint
	{
		OFFSET 0 0 0
		CHANNELS 3 Zrotation Yrotation Xrotation
		JOINT LeftHip
		{
			OFFSET 1.66553 -1.82942 0.76350
			CHANNELS 3 Zrotation Yrotation Xrotation
			JOINT LeftKnee
			{
				OFFSET 2.41740 -6.64177 0.00000
				CHANNELS 3 Zrotation Yrotation Xrotation
				JOINT LeftAnkle
				{
					OFFSET 2.71614 -7.46254 0.00000
					CHANNELS 3 Zrotation Yrotation Xrotation
					JOINT LeftToe
					{
						OFFSET 0.08005 -0.21993 1.82495
						CHANNELS 3 Zrotation Yrotation Xrotation
						End Site
						{
							OFFSET 0.00000 -0.00000 0.93441
						}
					}
				}
			}
		}
	}
	JOINT RHipJoint
	{
		OFFSET 0 0 0
		CHANNELS 3 Zrotation Yrotation Xrotation
		JOINT RightHip
		{
			OFFSET -1.63725 -1.82942 0.76350
			CHANNELS 3 Zrotation Yrotation Xrotation
			JOINT RightKnee
			{
				OFFSET -2.40538 -6.60872 0.00000
				CHANNELS 3 Zrotation Yrotation Xrotation
				JOINT RightAnkle
				{
					OFFSET -2.73312 -7.50919 0.00000
					CHANNELS 3 Zrotation Yrotation Xrotation
					JOINT RightToe
					{
						OFFSET -0.15567 -0.42769 1.93504
						CHANNELS 3 Zrotation Yrotation Xrotation
						End Site
						{
							OFFSET -0.00000 -0.00000 1.00100
						}
					}
				}
			}
		}
	}
	JOINT lowerback
	{
		OFFSET 0 0 0
		CHANNELS 3 Zrotation Yrotation Xrotation
		JOINT Chest
		{
			OFFSET 0.00326 2.30118 -0.13017
			CHANNELS 3 Zrotation Yrotation Xrotation
			JOINT Chest2
			{
				OFFSET 0.02887 2.30677 0.00834
				CHANNELS 3 Zrotation Yrotation Xrotation
				JOINT lowerneck
				{
					OFFSET 0 0 0
					CHANNELS 3 Zrotation Yrotation Xrotation
					JOINT Neck
					{
						OFFSET 0.12946 1.68326 0.00713
						CHANNELS 3 Zrotation Yrotation Xrotation
						JOINT Head
						{
							OFFSET -0.24364 1.67243 -0.16079
							CHANNELS 3 Zrotation Yrotation Xrotation
							End Site
							{
								OFFSET -0.09229 1.70819 -0.06383
							}
						}
					}
				}
				JOINT LeftCollar
				{
					OFFSET 0 0 0
					CHANNELS 3 Zrotation Yrotation Xrotation
					JOINT LeftShoulder
					{
						OFFSET 3.28104 0.69567 -0.00556
CHANNELS 3 Zrotation Xrotation Yrotation
						JOINT LeftElbow
						{
OFFSET 0 -5.707060 -0.000000
CHANNELS 3 Zrotation Xrotation Yrotation
							JOINT LeftWrist
							{
OFFSET 0 -3.332430 0.000000
CHANNELS 3 Zrotation Xrotation Yrotation
								JOINT lhand
								{
									OFFSET 0 0 0
CHANNELS 3 Zrotation Xrotation Yrotation
									JOINT LFingers
									{
OFFSET 0 -0.792690 0.000000
CHANNELS 3 Zrotation Xrotation Yrotation
										End Site
										{
OFFSET 0 -0.639090 0.000000
										}
									}
								}
								JOINT LThumb
								{
OFFSET 0 0.000000 0.000000
CHANNELS 3 Zrotation Xrotation Yrotation
									End Site
									{
OFFSET 0 -0.648840 0.648840
									}
								}
							}
						}
					}
				}
				JOINT RightCollar
				{
					OFFSET 0 0 0
					CHANNELS 3 Zrotation Yrotation Xrotation
					JOINT RightShoulder
					{
						OFFSET -3.40955 0.64424 0.14010
CHANNELS 3 Zrotation Xrotation Yrotation
						JOINT RightElbow
						{
OFFSET 0 -5.881760 -0.000000
CHANNELS 3 Zrotation Xrotation Yrotation
							JOINT RightWrist
							{
OFFSET 0 -3.281560 0.000000
CHANNELS 3 Zrotation Xrotation Yrotation
								JOINT rhand
								{
									OFFSET 0 0 0
CHANNELS 3 Zrotation Xrotation Yrotation
									JOINT RFingers
									{
OFFSET 0 -0.863130 0.000000
CHANNELS 3 Zrotation Xrotation Yrotation
										End Site
										{
OFFSET 0 -0.695870 0.000000
										}
									}
								}
								JOINT RThumb
								{
OFFSET 0 0.000000 0.000000
CHANNELS 3 Zrotation Xrotation Yrotation
									End Site
									{
OFFSET 0 -0.706500 0.706500
									}
								}
							}
						}
					}
				}
			}
		}
	}
}
MOTION
Frames: 9
Frame Time: 0.008333333333333333
20.742486 17.673252 -15.112472 -178.157165 -218.428689 173.180848 0.000000 0.000000 0.000000 -14.848963 -6.260737 -12.618518 1.948251 8.756768 25.037853 -0.391819 -13.276004 -3.061160 1.898822 -8.649580 -24.706673 0.000000 0.000000 0.000000 18.244286 -7.883292 2.365115 -1.427797 -7.555623 21.372352 -2.004073 2.453009 -26.130147 -5.196990 -13.602298 41.666973 6.652497 2.390971 8.274605 2.889257 4.344205 -4.863651 -1.339175 1.793675 -9.613727 18.103853 9.063093 -0.548651 -10.501351 12.756734 10.878855 -5.412121 6.614225 5.200505 0.000000 0.000000 0.000000 76.770908 9.541013 5.792220 23.870618 -35.027111 7.632207 16.496246 -76.798052 -16.913361 0.000000 0.000000 0.000000 -7.125000 0.000000 0.000000 -10.873788 47.277015 0.617934 0.000000 0.000000 0.000000 -68.209408 -8.983603 -21.673384 -16.702359 -26.463664 -3.953760 -13.023679 -30.278453 -22.726070 0.000000 0.000000 0.000000 7.125000 0.000000 0.000000 9.966700 7.006361 8.814298
20.885761 17.681402 -15.231277 -177.338863 -215.588017 174.160321 0.000000 0.000000 0.000000 -15.251624 -8.268427 -11.625060 1.331056 7.305609 20.624042 -0.931354 -16.873752 4.553210 0.507931 -4.568201 -12.681055 0.000000 0.000000 0.000000 16.615985 -6.896273 0.718555 -1.623836 -8.034188 22.818026 -1.861717 4.593101 -24.750394 -5.352865 -13.770227 42.325156 6.406223 1.211400 9.981873 2.877435 2.857639 -4.501868 -1.031492 1.068621 -10.335054 18.128167 8.983531 -2.099804 -10.314382 12.542617 13.815831 -5.285571 6.528364 6.340403 0.000000 0.000000 0.000000 73.462108 3.385718 -1.976393 23.070799 -34.166170 7.178044 15.035160 -76.942350 -16.245240 0.000000 0.000000 0.000000 -7.125000 0.000000 0.000000 -12.026535 46.410487 0.424495 0.000000 0.000000 0.000000 -63.730792 -12.185982 -15.348139 -16.381971 -26.035831 -3.812069 -10.780244 -28.208893 -25.099376 0.000000 0.000000 0.000000 7.125000 0.000000 0.000000 11.435935 4.912392 10.633240
21.116392 17.691134 -15.373124 -178.372114 -211.353379 175.287362 0.000000 0.000000 0.000000 -13.441419 -9.891601 -12.017683 1.086097 6.623453 18.604508 -0.666646 -15.811395 13.156463 0.471503 4.400316 12.206225 0.000000 0.000000 0.000000 16.519929 -5.423408 -1.894493 -1.700517 -8.212284 23.360697 -1.578790 6.256437 -22.547760 -4.614090 -12.934031 39.124560 6.509157 -0.193663 11.839823 3.617787 1.191914 -3.771386 0.005756 0.293887 -10.747028 17.186728 9.256988 -3.480037 -10.577702 12.877919 15.222289 -5.123708 6.594769 7.028061 0.000000 0.000000 0.000000 71.161843 2.596147 -3.296711 22.375205 -33.398442 6.791220 12.735338 -76.306920 -14.417011 0.000000 0.000000 0.000000 -7.125000 0.000000 0.000000 -13.575798 44.311191 -0.235049 0.000000 0.000000 0.000000 -62.639807 -12.925644 -14.493174 -15.560497 -24.921063 -3.458762 -8.692578 -24.868836 -26.652380 0.000000 0.000000 0.000000 7.125000 0.000000 0.000000 12.741869 3.623734 12.222187
21.459733 17.711938 -15.514743 -178.675908 -205.544304 177.372646 0.000000 0.000000 0.000000 -12.503822 -10.150227 -12.145584 0.988920 6.329288 17.742983 -0.989131 -17.567306 10.011274 0.134820 2.366814 6.520507 0.000000 0.000000 0.000000 15.328075 -3.544790 -5.309740 -1.793402 -8.421759 24.002737 -1.206367 9.164806 -19.723655 -4.001140 -12.161926 36.307169 6.021429 -0.823207 14.016443 3.526802 0.388001 -2.809218 0.352130 -0.056251 -10.988415 17.034851 9.137016 -3.164065 -10.069542 12.694379 15.890987 -4.968696 6.536756 7.120676 0.000000 0.000000 0.000000 72.177399 5.435017 -2.500859 21.980668 -32.955219 6.575335 14.113409 -75.513536 -15.540416 0.000000 0.000000 0.000000 -7.125000 0.000000 0.000000 -12.660049 45.589745 0.187157 0.000000 0.000000 0.000000 -63.339500 -9.704906 -21.361155 -13.587391 -22.141727 -2.670666 -7.911561 -19.516399 -25.534011 0.000000 0.000000 0.000000 7.125000 0.000000 0.000000 13.178856 4.799937 12.368451
21.894707 17.737976 -15.644108 -179.166917 -197.835452 180.357725 0.000000 0.000000 0.000000 -12.024206 -9.543323 -13.415910 0.947598 6.199482 17.364292 -0.762036 -15.822634 1.395717 0.485448 -4.311703 -11.979005 0.000000 0.000000 0.000000 14.144537 0.334993 -9.452241 -1.811241 -8.461295 24.124064 -0.750947 12.051185 -16.474798 -3.504567 -11.469358 33.880692 5.113433 -1.053547 15.828233 3.088004 -0.064375 -1.627718 0.489249 -0.216846 -10.727319 16.263333 9.245266 -4.085942 -8.140824 12.487266 17.950440 -4.184982 6.502816 7.758871 0.000000 0.000000 0.000000 73.966174 10.802594 1.228410 21.721828 -32.661090 6.435138 15.518605 -74.572080 -16.847595 0.000000 0.000000 0.000000 -7.125000 0.000000 0.000000 -11.762530 47.078401 0.611772 0.000000 0.000000 0.000000 -64.516313 -4.243145 -27.188516 -12.775747 -20.957710 -2.372499 -7.809486 -15.815691 -25.630795 0.000000 0.000000 0.000000 7.125000 0.000000 0.000000 13.241757 4.716237 12.453070
22.399224 17.812224 -15.772894 -179.388000 -190.139791 183.232733 0.000000 0.000000 0.000000 -13.018559 -9.404568 -15.981822 1.192995 6.930665 19.510038 0.061189 -7.851086 -6.721856 3.413774 -11.336344 -33.422914 0.000000 0.000000 0.000000 12.255129 5.148305 -12.111798 -1.537239 -7.827097 22.190173 -0.204101 13.541976 -11.837751 -3.525471 -11.500499 33.987274 3.492317 -1.091939 17.414011 2.335514 -0.464152 -0.774541 0.692954 -0.333182 -10.679375 16.086037 9.139360 -5.070909 -6.400310 11.940878 21.063019 -3.582942 6.372206 8.806387 0.000000 0.000000 0.000000 75.186539 14.203013 4.456419 21.449231 -32.348982 6.288618 17.787848 -74.283858 -17.222377 0.000000 0.000000 0.000000 -7.125000 0.000000 0.000000 -9.755768 47.769924 0.672700 0.000000 0.000000 0.000000 -64.972536 1.029559 -31.026570 -12.800030 -20.993449 -2.381185 -9.830434 -17.043380 -24.805180 0.000000 0.000000 0.000000 7.125000 0.000000 0.000000 12.002491 5.310023 11.091922
22.919274 17.860404 -15.848409 -179.766965 -180.995100 185.451750 0.000000 0.000000 0.000000 -13.691037 -7.535272 -17.828101 1.332302 7.309146 20.634608 0.281051 -2.324539 -9.485965 3.813377 -11.905779 -35.402248 0.000000 0.000000 0.000000 10.300829 8.268499 -15.651672 -1.315512 -7.264648 20.501783 0.557183 16.292616 -4.390441 -3.646242 -11.672746 34.585747 1.871783 -1.318925 18.482774 0.916506 -1.232739 -0.663127 0.284262 -0.654984 -11.167242 15.321316 9.350023 -6.781429 -4.256160 11.665677 25.718968 -2.653215 6.396894 10.585434 0.000000 0.000000 0.000000 77.132085 16.007394 7.097500 20.923636 -31.738971 6.009763 19.186768 -73.797738 -17.451714 0.000000 0.000000 0.000000 -7.125000 0.000000 0.000000 -8.500110 48.205418 0.676662 0.000000 0.000000 0.000000 -64.637015 2.637943 -32.186039 -12.915081 -21.162695 -2.422549 -10.678473 -17.807121 -24.153084 0.000000 0.000000 0.000000 7.125000 0.000000 0.000000 11.465959 5.858616 10.452125
23.422145 17.897339 -15.870790 -180.889631 -172.225386 187.118539 0.000000 0.000000 0.000000 -13.907429 -5.889449 -18.722272 1.441012 7.589220 21.473102 0.316466 3.297006 -12.365410 3.956079 -12.099033 -36.086952 0.000000 0.000000 0.000000 10.168712 8.008187 -19.902144 -1.159927 -6.837405 19.234561 1.035086 17.719859 5.288345 -4.735276 -13.076529 39.660534 0.271554 -1.944740 18.616600 0.474894 -2.466927 -1.177906 1.070197 -1.151859 -11.788073 14.752628 9.034277 -8.532273 -4.544108 11.156569 29.070824 -2.664110 6.063319 12.136969 0.000000 0.000000 0.000000 77.106648 15.695440 8.985983 19.864608 -30.478885 5.462549 19.952345 -72.615315 -17.804051 0.000000 0.000000 0.000000 -7.125000 0.000000 0.000000 -7.869145 48.682613 0.718770 0.000000 0.000000 0.000000 -65.864296 2.708546 -28.416180 -13.932079 -22.637492 -2.801934 -11.281311 -21.476134 -24.454463 0.000000 0.000000 0.000000 7.125000 0.000000 0.000000 11.107353 5.491772 10.191312
23.845460 17.950304 -15.877353 -182.696965 -164.264374 188.435429 0.000000 0.000000 0.000000 -13.210887 -6.716011 -17.895038 1.488312 7.707296 21.828587 0.163583 9.690394 -16.274482 2.131820 -9.135124 -26.219101 0.000000 0.000000 0.000000 12.726940 6.286318 -24.578364 -1.208451 -6.973928 19.638234 0.655379 14.476817 8.607766 -4.011795 -12.176041 36.357712 -0.561680 -2.633669 18.298763 0.382250 -3.585040 -1.563562 1.752352 -1.622457 -11.983079 13.887272 8.734869 -8.708533 -4.197080 10.674123 28.837542 -2.476398 5.756521 11.935250 0.000000 0.000000 0.000000 76.818916 13.684772 7.566088 19.691996 -30.269459 5.375202 21.978517 -72.796392 -18.076680 0.000000 0.000000 0.000000 -7.125000 0.000000 0.000000 -5.992512 49.277262 0.634478 0.000000 0.000000 0.000000 -67.253525 2.173550 -28.539396 -14.186101 -23.000167 -2.900444 -10.800056 -21.390858 -24.617748 0.000000 0.000000 0.000000 7.125000 0.000000 0.000000 11.406800 5.385798 10.500843
